<?xml version="1.0" encoding="utf-8"?><svg id="Layer_1" data-name="Layer 1" xmlns="http://www.w3.org/2000/svg" xmlns:xlink="http://www.w3.org/1999/xlink" width="552" height="500" viewBox="0 0 552 500"><defs><style>.cls-1,.cls-24,.cls-25,.cls-49{fill:none;}.cls-2,.cls-20,.cls-31,.cls-39,.cls-53,.cls-69{fill:#263d5d;}.cls-2{opacity:0.26;}.cls-3{fill:#b4c0cc;}.cls-4{fill:#f4f5f0;}.cls-5{fill:#aebaca;}.cls-6{fill:#d8d8d8;}.cls-7{fill:#eae6e4;}.cls-8{fill:#8e9091;}.cls-9{fill:#ac7d51;}.cls-10{fill:#f9a95a;}.cls-11{fill:#c92727;}.cls-12{fill:#fcc23c;}.cls-13{fill:url(#radial-gradient);}.cls-14{fill:url(#radial-gradient-2);}.cls-15{fill:url(#radial-gradient-3);}.cls-16{fill:url(#radial-gradient-4);}.cls-17{fill:url(#radial-gradient-5);}.cls-18{fill:url(#radial-gradient-6);}.cls-19{fill:#4baa37;}.cls-20{opacity:0.16;}.cls-21{opacity:0.12;fill:url(#linear-gradient);}.cls-22{fill:#fae1bd;}.cls-23{fill:#f9f3f2;}.cls-24,.cls-25{stroke:#d6b48e;stroke-width:0.44px;}.cls-24{stroke-linecap:round;}.cls-24,.cls-25,.cls-49{stroke-miterlimit:10;}.cls-26{clip-path:url(#clip-path);}.cls-27{fill:#edd0a9;}.cls-28{clip-path:url(#clip-path-2);}.cls-29{fill:#364042;}.cls-30{fill:#718095;}.cls-32{fill:#16826d;}.cls-33{fill:#3ae0c0;}.cls-34{fill:#0b9dcc;}.cls-35{fill:url(#linear-gradient-2);}.cls-36{fill:#261d16;}.cls-37{fill:url(#linear-gradient-3);}.cls-38{fill:url(#linear-gradient-4);}.cls-39,.cls-72{opacity:0.25;}.cls-40{fill:#4f5363;}.cls-41{fill:#262626;}.cls-42{fill:url(#linear-gradient-5);}.cls-43{fill:url(#linear-gradient-6);}.cls-44{fill:url(#linear-gradient-7);}.cls-45{fill:url(#linear-gradient-8);}.cls-46{fill:#959699;}.cls-47{fill:url(#linear-gradient-9);}.cls-48{fill:url(#linear-gradient-10);}.cls-49{stroke:url(#linear-gradient-11);}.cls-50{fill:#ffd7b3;}.cls-51{fill:#70ddf0;}.cls-52{fill:#f6f7f8;}.cls-53{opacity:0.4;isolation:isolate;}.cls-54{fill:#95a0b0;}.cls-55{fill:#dfe2e7;}.cls-56{opacity:0.79;}.cls-57{fill:url(#linear-gradient-12);}.cls-58{fill:#fd0;}.cls-59{fill:#f8fa00;}.cls-60{fill:#f4bf08;}.cls-61{fill:#3f0060;}.cls-62{fill:#d4acfc;}.cls-63{fill:#9600f7;}.cls-64{fill:url(#Unbenannter_Verlauf_134);}.cls-65{fill:#cef6fd;}.cls-66{fill:#28cce8;}.cls-67{fill:url(#Unbenannter_Verlauf_134-2);}.cls-68{fill:url(#Unbenannter_Verlauf_134-3);}.cls-69{opacity:0.06;}.cls-70{fill:#5f6b7a;}.cls-71{fill:url(#linear-gradient-13);}.cls-72{fill:url(#Unbenannter_Verlauf_15);}.cls-73{opacity:0.5;fill:url(#Unbenannter_Verlauf_15-2);}.cls-74{opacity:0.75;fill:url(#Unbenannter_Verlauf_15-3);}.cls-75{fill:url(#Unbenannter_Verlauf_15-4);}.cls-76{fill:#11c7e6;}.cls-77,.cls-78{opacity:0.1;}.cls-77{fill:url(#Unbenannter_Verlauf_15-5);}.cls-78{fill:url(#Unbenannter_Verlauf_15-6);}.cls-79{fill:url(#Unbenannter_Verlauf_15-7);}</style><radialGradient id="radial-gradient" cx="-970.87" cy="175.15" r="4.74" gradientTransform="matrix(-1, 0, 0, 1, -472.06, 0.55)" gradientUnits="userSpaceOnUse"><stop offset="0" stop-color="#8c2de0"/><stop offset="0" stop-color="#d04b10"/><stop offset="0.28" stop-color="#ca3e12"/><stop offset="0.34" stop-color="#c83b12"/><stop offset="0.61" stop-color="#be1d19"/><stop offset="0.69" stop-color="#ba131b"/></radialGradient><radialGradient id="radial-gradient-2" cx="-939.2" cy="176.39" r="4.74" xlink:href="#radial-gradient"/><radialGradient id="radial-gradient-3" cx="-942.71" cy="154.87" r="4.74" xlink:href="#radial-gradient"/><radialGradient id="radial-gradient-4" cx="-968.46" cy="158.18" r="4.74" xlink:href="#radial-gradient"/><radialGradient id="radial-gradient-5" cx="-954.1" cy="166.94" r="4.74" xlink:href="#radial-gradient"/><radialGradient id="radial-gradient-6" cx="-927.31" cy="165.62" r="4.74" xlink:href="#radial-gradient"/><linearGradient id="linear-gradient" x1="331.59" y1="370.8" x2="467.6" y2="431.67" gradientUnits="userSpaceOnUse"><stop offset="0.14" stop-color="#bfbfbf" stop-opacity="0"/><stop offset="0.73" stop-color="#bfbfbf"/></linearGradient><clipPath id="clip-path"><path class="cls-1" d="M366.85,360.32c.84-1.33,2.81-1.3,4-.46,1,.73,2.24,5,2.83,6.43s1.2,6.84,1.61,7.5,8.54,14.14,8.54,14.14c1.27,2.38-2,6.71,6.31,15.09,2.78,2.81,7.65,7,7.65,7l10.74,8.15c2.33,1.77.85,3-.48,4.83s4.63,34.3.06,35.28a8.32,8.32,0,0,1-7-1.43,2.65,2.65,0,0,1-.34-.33c-2.07-2.33-29.42-33.14-30.54-35.36a15.55,15.55,0,0,0-3.27-4.34c-.69-.65-14-10.23-15.58-11.45S347,400.3,345.16,397s-9.82-13.15-9.82-13.15.57-4.24-.46-5-1.36-7.9-1.49-8.47.36-6.66.36-6.66,5.92-8.42,7.63-7.89c3.57,1.11,0,3.67,0,3.67s-1.57,2.12-.62,3.9-1.08,5.76-.81,6.16-2.08,4.28-.45,5.47a2.53,2.53,0,0,0,2.86.36A54.5,54.5,0,0,0,342.5,365c-1.3-10.76,8.66-15,8.66-15s3.17-1.61,5-1.6c6.16,0,8.21-1.17,6,1.36a4,4,0,0,1-3.32,1.65s-8.72,3.83-8.51,4.57-1.27,3-1.21,3.94-.06,4.69,1.23,7.26.47,2.22,1.56,2.6,0-3.13,0-3.13-2.46-8.7-2-10c1.79-4.9,6.19-2.59,6.19-2.59s5.26,3.41,5.64,3.56,4.27,2.73,4.27,2.73,0,.41.27.54"/></clipPath><clipPath id="clip-path-2"><path class="cls-1" d="M407.68,366.24c-.66,1.43.45,3.07,1.8,3.6,1.18.46,5.43-.88,6.93-1.16s6.38-2.75,7.15-2.76l16.52-.61c2.68-.24,12.17-2.27,16.07-3s10.08,2.54,10.08,2.54l12.71,4.51c2.76,1,3-.94,3.77-3s31.23-14.93,29.54-19.29a8.34,8.34,0,0,0-5-5.08,3.41,3.41,0,0,0-.46-.1c-3.08-.45-43.84-6.43-46.32-6.16a15.26,15.26,0,0,1-5.42-.35c-.92-.22-16.25-6.13-18.12-6.76s-6.69-.89-10.44-.59-20-3-20-3-7.72-2.2-8.88-2.67-5.95-.06-6.5.14-6.82.49-6.82.49-7.44.31-8.67,1.62c-3.66,3.89,1.87,5.82,1.87,5.82s9.15.5,11.16.32,7.69,1,8.18,1,6.39,2.9,8.28,3.62a2.53,2.53,0,0,1,1.87,2.19s-11,.77-14.29.71-6.72,2.62-6.72,2.62-11.35,6-13.05,6.82-2.31,2.28-1.95,4.74,5.15,1.48,5.15,1.48,6.2-2.81,6.94-3.05,7.16-2.31,8-2.75,8.2-.94,11.06-1.28a7,7,0,0,1,5.5,1.8c.91.71-2.59,1.75-2.59,1.75s-8.62,2.72-9.43,3.8c-3.12,4.19,1.23,6.59,1.23,6.59s5.73,2.54,6.07,2.77,4.62,2.07,4.62,2.07a.76.76,0,0,1,.6-.06"/></clipPath><linearGradient id="linear-gradient-2" x1="189.75" y1="466.53" x2="161.32" y2="446.05" gradientUnits="userSpaceOnUse"><stop offset="0.36" stop-color="#404553"/><stop offset="1" stop-color="#72798d"/></linearGradient><linearGradient id="linear-gradient-3" x1="179.67" y1="478.07" x2="168.81" y2="470.24" xlink:href="#linear-gradient-2"/><linearGradient id="linear-gradient-4" x1="167.64" y1="470.62" x2="181.25" y2="477.9" gradientUnits="userSpaceOnUse"><stop offset="0.2" stop-color="#010001"/><stop offset="1" stop-color="#72798d" stop-opacity="0"/></linearGradient><linearGradient id="linear-gradient-5" x1="170.12" y1="452.34" x2="137.62" y2="428.92" gradientUnits="userSpaceOnUse"><stop offset="0.21" stop-color="#444954"/><stop offset="1" stop-color="#2f3239"/></linearGradient><linearGradient id="linear-gradient-6" x1="164.06" y1="454.03" x2="134.72" y2="432.9" gradientUnits="userSpaceOnUse"><stop offset="0.36" stop-color="#595f72"/><stop offset="1" stop-color="#555867"/></linearGradient><linearGradient id="linear-gradient-7" x1="158.41" y1="450.1" x2="140.16" y2="436.95" xlink:href="#linear-gradient-2"/><linearGradient id="linear-gradient-8" x1="158.88" y1="449.45" x2="140.8" y2="436.42" gradientUnits="userSpaceOnUse"><stop offset="0.36" stop-color="#323640"/><stop offset="1" stop-color="#5a5f6e"/></linearGradient><linearGradient id="linear-gradient-9" x1="121.06" y1="480.42" x2="88.56" y2="457.01" xlink:href="#linear-gradient-5"/><linearGradient id="linear-gradient-10" x1="116.21" y1="482.06" x2="86.86" y2="460.92" gradientUnits="userSpaceOnUse"><stop offset="0.61" stop-color="#5a5e6d"/><stop offset="1" stop-color="#404451"/></linearGradient><linearGradient id="linear-gradient-11" x1="89.9" y1="464.9" x2="105.44" y2="482.13" gradientUnits="userSpaceOnUse"><stop offset="0.2" stop-color="#00c44b"/><stop offset="0.55" stop-color="#20843b"/><stop offset="1" stop-color="#00f55c"/></linearGradient><linearGradient id="linear-gradient-12" x1="97.9" y1="11.85" x2="97.9" y2="186.09" gradientUnits="userSpaceOnUse"><stop offset="0.02" stop-color="#e7f9fc" stop-opacity="0"/><stop offset="0.15" stop-color="#bfeff8" stop-opacity="0.11"/><stop offset="0.44" stop-color="#6ddcef" stop-opacity="0.32"/><stop offset="0.66" stop-color="#3bd0ea" stop-opacity="0.45"/><stop offset="0.79" stop-color="#28cce8" stop-opacity="0.5"/></linearGradient><linearGradient id="Unbenannter_Verlauf_134" x1="6.6" y1="302.87" x2="103.14" y2="137.22" gradientUnits="userSpaceOnUse"><stop offset="0" stop-color="#001b41"/><stop offset="0" stop-color="#031d43"/><stop offset="0.04" stop-color="#304665"/><stop offset="0.09" stop-color="#596b83"/><stop offset="0.14" stop-color="#7f8c9f"/><stop offset="0.19" stop-color="#9faab8"/><stop offset="0.25" stop-color="#bbc2cc"/><stop offset="0.32" stop-color="#d1d6dc"/><stop offset="0.39" stop-color="#e2e5e9"/><stop offset="0.49" stop-color="#edeff2"/><stop offset="0.62" stop-color="#f4f5f7"/><stop offset="1" stop-color="#f6f7f8"/></linearGradient><linearGradient id="Unbenannter_Verlauf_134-2" x1="201.25" y1="177.79" x2="297.79" y2="12.14" xlink:href="#Unbenannter_Verlauf_134"/><linearGradient id="Unbenannter_Verlauf_134-3" x1="202.53" y1="110.95" x2="299.07" y2="-54.7" xlink:href="#Unbenannter_Verlauf_134"/><linearGradient id="linear-gradient-13" x1="335.44" y1="326.38" x2="184.72" y2="158.45" gradientUnits="userSpaceOnUse"><stop offset="0.21" stop-color="#001b41"/><stop offset="0.86" stop-color="#4a00e0"/></linearGradient><linearGradient id="Unbenannter_Verlauf_15" x1="225.76" y1="-2463.39" x2="265.68" y2="-2463.39" gradientTransform="matrix(0.87, -0.5, 0, 1.15, 2.45, 3253.15)" gradientUnits="userSpaceOnUse"><stop offset="0" stop-color="#11c7e6"/><stop offset="1" stop-color="#3c9ddb"/></linearGradient><linearGradient id="Unbenannter_Verlauf_15-2" x1="264.48" y1="-2474.69" x2="304.61" y2="-2474.69" xlink:href="#Unbenannter_Verlauf_15"/><linearGradient id="Unbenannter_Verlauf_15-3" x1="307.35" y1="-2474.67" x2="347.5" y2="-2474.67" xlink:href="#Unbenannter_Verlauf_15"/><linearGradient id="Unbenannter_Verlauf_15-4" x1="346.26" y1="-2463.75" x2="386.15" y2="-2463.75" xlink:href="#Unbenannter_Verlauf_15"/><linearGradient id="Unbenannter_Verlauf_15-5" x1="3699.11" y1="-274.98" x2="3702.65" y2="-274.98" gradientTransform="matrix(0.64, -1.15, 0.58, 0.51, -2002.86, 4698.22)" xlink:href="#Unbenannter_Verlauf_15"/><linearGradient id="Unbenannter_Verlauf_15-6" x1="2162.98" y1="-1681.56" x2="2166.52" y2="-1681.56" gradientTransform="matrix(-0.64, -0.41, -0.58, 1.19, 734.13, 3118.02)" xlink:href="#Unbenannter_Verlauf_15"/><linearGradient id="Unbenannter_Verlauf_15-7" x1="1906.93" y1="-2505.37" x2="1957.27" y2="-2505.37" gradientTransform="translate(-152.92 3342.85) rotate(-30)" xlink:href="#Unbenannter_Verlauf_15"/></defs><polygon class="cls-2" points="414.79 175.04 476.65 210.75 544.75 171.53 538.5 168.88 414.79 168.88 414.79 175.04"/><polygon class="cls-3" points="414.75 171.92 476.61 207.63 544.71 168.41 538.46 165.76 414.75 165.76 414.75 171.92"/><polygon class="cls-4" points="414.75 165.76 476.61 201.47 538.46 165.76 476.61 130.05 414.75 165.76"/><polygon class="cls-5" points="464.86 71.18 526.72 106.89 544.71 168.41 538.46 165.76 461.29 75.42 464.86 71.18"/><polygon class="cls-6" points="461.29 75.42 523.15 111.13 538.46 165.76 476.61 130.05 461.29 75.42"/><polygon class="cls-7" points="414.75 165.76 476.61 201.47 538.46 165.76 476.61 130.05 414.75 165.76"/><polygon class="cls-8" points="414.75 165.76 420.56 169.12 478.18 135.44 534.63 167.98 538.46 165.76 476.61 130.05 472.23 132.58 414.75 165.76"/><polygon class="cls-4" points="414.75 165.76 474.48 200.24 476.61 201.47 479.73 199.67 538.46 165.76 536.2 164.46 476.61 198.28 418.57 165.76 478.7 131.26 476.61 130.05 416.83 164.56 414.75 165.76"/><polygon class="cls-8" points="461.29 75.42 466.28 78.41 481.59 133.04 476.61 130.29 461.29 75.42"/><polygon class="cls-4" points="461.29 75.42 523.15 111.13 538.46 165.76 536.2 164.46 521.06 112.01 463.65 78.66 478.46 131.26 476.61 130.29 461.29 75.42"/><ellipse class="cls-9" cx="476.12" cy="168.29" rx="36.82" ry="21.26"/><ellipse class="cls-10" cx="476.61" cy="167.08" rx="35.59" ry="20.19"/><path class="cls-11" d="M500.56,180.67c-6.09,4.55-15,3.67-23.95,5.15-8.56,1.4-17.34-1.4-24-5.15a20.47,20.47,0,0,1-9.92-13.59c-.74-4.86,5.55-11,12.16-14.76s20.18-5.74,28.39-3c8.94,3,11.28-.55,17.28,4.13,6.23,4.85,9.93,8.67,9.93,13.59S506.13,176.51,500.56,180.67Z"/><path class="cls-12" d="M499.57,179.87c-5.84,4.36-14.28,4.72-23,4.93-12.93.32-11.74-1.85-23-4.93-7-1.93-9-9.87-9.52-13-.71-4.66,8.46-11.68,12.27-14.08,6.17-3.88,18.74-5.58,26.61-2.91,8.58,2.9,10.82,0,16.57,4.44,6,4.66,9.52,7.83,9.52,12.55S504.92,175.88,499.57,179.87Z"/><ellipse class="cls-4" cx="479.73" cy="177.13" rx="10.27" ry="5.82"/><ellipse class="cls-4" cx="462.55" cy="162.46" rx="10.27" ry="5.82"/><ellipse class="cls-4" cx="486.87" cy="158.34" rx="10.27" ry="5.82"/><ellipse class="cls-13" cx="496.46" cy="175.28" rx="5.82" ry="3.3"/><ellipse class="cls-14" cx="464.87" cy="176.51" rx="5.82" ry="3.3"/><ellipse class="cls-15" cx="468.37" cy="155.04" rx="5.82" ry="3.3"/><ellipse class="cls-16" cx="494.06" cy="158.34" rx="5.82" ry="3.3"/><ellipse class="cls-17" cx="479.73" cy="167.08" rx="5.82" ry="3.3"/><ellipse class="cls-18" cx="453.01" cy="165.76" rx="5.82" ry="3.3"/><path class="cls-19" d="M488,172.72s3.94,6.19,2,7.6S483.73,180.32,488,172.72Z"/><path class="cls-19" d="M472.33,162.16s.94,6.52-2.65,7.39C467.33,170.12,464.57,166.06,472.33,162.16Z"/><path class="cls-19" d="M457,170.24s-.23,7.33-2.65,7.39S452.37,171.67,457,170.24Z"/><path class="cls-19" d="M494.53,161.83s-7.08,1.94-7.84-.36S488.51,155.56,494.53,161.83Z"/><path class="cls-19" d="M464.56,158.6s-6.23-3.88-5.07-6S465.07,149.92,464.56,158.6Z"/><polygon class="cls-20" points="482.31 133.34 536.2 164.46 538.46 165.76 506.05 184.48 503.61 182.95 502.33 183.68 447.59 153.42 446.85 149.58 445.8 147.83 476.61 130.05 482.31 133.34"/><path class="cls-21" d="M533.22,372.17c-32.76-10.54-150.3-36.38-172.21-15.43s-40.4,50.61-19.35,76c22.23,26.87,62.25,57,74.94,64.94,2.21,1.39,9.35,2.08,11.31.38,2.83-2.45,1.16-14.34,6-17,4-2.17,7.88-5.62,4-8-33.77-20.53-66.92-51.07-76.08-62a5.9,5.9,0,0,1-.51-6.84c2.44-4,6.47-10.77,9.76-16.82.17.48.33.94.52,1.43,1.88,2,33.67-6.39,46.78-9.94a33.42,33.42,0,0,1,12.15-1,235.29,235.29,0,0,1,71,19.46c7.78,3.56,19.33,1.62,25.62-4.17,7-6.39,7-5.82,10-11.83A6.61,6.61,0,0,0,533.22,372.17Z"/><path class="cls-22" d="M366.85,360.32c.63-1.44,2.67-1.05,4-.46s6.77,14.34,6.52,19.45c-.38,7.72-7.23,3-9.1-.5-.23-.44,2.74,6.61,2.74,6.61,1.27,2.37,17.6,13.94,19.13,17.6s7.65,7,7.65,7l10.74,8.15c2.33,1.77.85,3-.48,4.83s4.63,34.3.06,35.28a8.32,8.32,0,0,1-7-1.43,2.65,2.65,0,0,1-.34-.33c-2.07-2.33-29.42-33.14-30.54-35.36a15.55,15.55,0,0,0-3.27-4.34c-.69-.65-14-10.23-15.58-11.45s-15.75-11.29-17.32-14.7c-1.5-3.24-3.37-9-2.81-14.21.4-3.7-3,.33-2.77-4.25a74.57,74.57,0,0,1,1.69-8.06c1.66-4.21,6.31-8,6.31-8s6.62-7,11.16-8.14c5.18-1.31,4.46,4.43,4.46,4.43s-8.06,5.84-8.85,8.15c-.65,1.91-2.77,6.29-2.49,6.69s-.84,4,.13,7.76c.51,1.95,1.49.38,1.49.38s-1.09-8.71-1.6-12c-.87-5.63,2.13-6.79,2.13-6.79s-.15,1,4-4.37c1.74-2.26,7.18-6.1,11.34-6.55,4.76-.51,4,4.11,4,4.11a27.72,27.72,0,0,1-5.91,2.73,26.42,26.42,0,0,0-7,5.53c-.58.7-1.3,4.3-.42,8.38.61,2.82,2,3,3.1,3.38s0-3.13,0-3.13-2.46-8.7-2-10c1.79-4.9,6.19-2.59,6.19-2.59s5.26,3.41,5.64,3.56,4.28,2.88,4.28,2.88l.33.43S366.83,360.38,366.85,360.32Z"/><path class="cls-23" d="M361.59,363.28a.42.42,0,0,0,.64,0c.75-.82,2.76-2.91,3.43-2.69s-2.25-.88-2.86-1.11a.44.44,0,0,0-.23,0,1.82,1.82,0,0,0-1.55,1.92A3.38,3.38,0,0,0,361.59,363.28Z"/><path class="cls-23" d="M373.37,381.46a1.59,1.59,0,0,0,.79.42,6.09,6.09,0,0,0,1.47.3c.32-.09.75-1.1.93-2.28a4,4,0,0,0-.93-3c-.42-.62-2.08.27-2.22,1.57A7.51,7.51,0,0,0,373.37,381.46Z"/><path class="cls-24" d="M334.91,370a4.15,4.15,0,0,1,4,.44"/><path class="cls-25" d="M363.91,368.59s2.62-1.62,3.49.87c.11.32.12,6.36,2.24,9.72.75,1.87,1.25,3.69,4.74,4.37,1.45.28,4.61-2.12,2.37-8.35-.51-1.4-3.79-12.62-5.2-14.6-.95-1.34-3.68-2.38-5.11.33"/><path class="cls-25" d="M355.71,364.53s2.59.23,2.89,0"/><path class="cls-25" d="M357.3,363.53s3.61,2.15,5.25,2.22,5.1-.63,4.31-4c-.21-.91-2.58-2.61-3-2.84s-1.72-1-2.75-1.6l-4.51-2.87s-3-1.47-5,.32c-1.14,1-2.15,1.8-1,6.37.33,1.36,2.6,7.74,1.8,8.54s-2.23-.56-2.23-.56"/><path class="cls-25" d="M342.64,359.54s2.94-1.17,4.76-.21"/><g class="cls-26"><path class="cls-27" d="M406.17,419.19l-2.78-7.37-7.23-4.62s-3.11-.66-3.62-3.21-2.38-1.81-3.88-4.51c0,0-22,9-35-10.21-.63-.93-3-2.49-5.08-4.95-1.85-2.16-3.6-5-6-6.46-1.38-.88-6.56-4.81-10.36-3.54s-4,2.69-4,2.69,2-3.08,8.41,3.35c.74.74,5.22,4.76,6.12,6.47s2,5,3.3,7.89,2.94,8.83,5.32,10.65,11.81,10.7,11.81,10.7l32.62,40.64a3.19,3.19,0,0,0,.56.54h0a3,3,0,0,0,4.69-2.89l-3.44-20.7,10.09-5.47Z"/></g><path class="cls-25" d="M356.57,409.23s-6-4.06-8.15-7.17-7.81-12.19-9.93-14.62-4.37-5.43-5.28-5.9-5.44-3.87-5-4.93,4.56-3.68,9.13-1.85a23.39,23.39,0,0,1,9.51,7.36c1.25,1.84,6.1,7.15,7.48,7.48"/><path class="cls-22" d="M407.68,366.24c-.87,1.32.45,3.07,1.8,3.6,1.18.46,5.43-.88,6.93-1.16s6.38-2.75,7.15-2.76l16.52-.61c2.68-.24,12.17-2.27,16.07-3s10.08,2.54,10.08,2.54l12.71,4.51c2.76,1,3-.94,3.77-3s31.23-14.93,29.54-19.29a8.34,8.34,0,0,0-5-5.08,3.41,3.41,0,0,0-.46-.1c-3.08-.45-43.84-6.43-46.32-6.16a15.26,15.26,0,0,1-5.42-.35c-.92-.22-16.25-6.13-18.12-6.76s-6.69-.89-10.44-.59-20-3-20-3-7.72-2.2-8.88-2.67-5.95-.06-6.5.14-6.82.49-6.82.49-7.44.31-8.67,1.62c-3.66,3.89,1.87,5.82,1.87,5.82s9.15.5,11.16.32,7.69,1,8.18,1,6.39,2.9,8.28,3.62a2.53,2.53,0,0,1,1.87,2.19s-11,.77-14.29.71-6.72,2.62-6.72,2.62-11.35,6-13.05,6.82-2.31,2.28-1.95,4.74,5.15,1.48,5.15,1.48,6.2-2.81,6.94-3.05,7.16-2.31,8-2.75,8.2-.94,11.06-1.28a7,7,0,0,1,5.5,1.8c.91.71-2.59,1.75-2.59,1.75s-8.62,2.72-9.43,3.8c-3.12,4.19,1.23,6.59,1.23,6.59s5.73,2.54,6.07,2.77,4.75,2,4.75,2l.54.05Z"/><path class="cls-23" d="M407.22,326.71s1,3-1.49,2.42-5-1.54-5.16-3.09-.19-1.56.5-1.5S406.45,325.68,407.22,326.71Z"/><path class="cls-23" d="M407.26,360.22a.41.41,0,0,1,.37.52c-.27,1.08-.92,3.9-.36,4.35s-2-1.4-2.5-1.79a.49.49,0,0,1-.14-.18,1.83,1.83,0,0,1,.76-2.36A3.43,3.43,0,0,1,407.26,360.22Z"/><path class="cls-23" d="M422.44,360.51s0,1.17.28,1.5a4,4,0,0,1,.82,1c.11.32.67,1.09-.47,1.45s-2.29.48-2.74-.12a2.18,2.18,0,0,1-.45-2.4C420.41,361.13,421.53,360,422.44,360.51Z"/><path class="cls-24" d="M385.46,330.69a4.16,4.16,0,0,0,.93-3.9"/><path class="cls-25" d="M414.14,361.18a8.85,8.85,0,0,1,2-.16,9.22,9.22,0,0,0,3.08-.68s3.53-1.7,4.68-.77,3.66,3.27-.83,6.48c-1.22.86-10.13,4.06-12.55,4-1.65-.06-4-1.78-2.53-4.46"/><path class="cls-25" d="M405.09,354.62s1.61,2,1.56,2.43"/><path class="cls-25" d="M405.12,356.49s3.79,1.85,4.74,3.18,2.27,4.61-1,5.8c-.88.32-3.6-.73-4-.93s-1.75-.92-2.85-1.43-4.87-2.2-4.87-2.2-2.88-1.71-2.47-4.35c.23-1.52.32-2.79,4.77-4.35,1.32-.46,7.9-2.06,8.13-3.17s-1.69-1.56-1.69-1.56"/><path class="cls-25" d="M393.45,347.62s.93-3-.17-4.77"/><g class="cls-28"><path class="cls-27" d="M478.47,366.85l-7.69,1.72L463,365.06s-2.25-2.24-4.67-1.27-4.41-.09-7.49.13c0,0-3-24.25-26.11-24.54-1.12,0-3.71-1.12-6.93-1.53-2.82-.37-6.11-.3-8.68-1.47-1.49-.68-7.62-2.85-8.64-6.73s0-4.85,0-4.85-1.48,3.37,7.41,5.2c1,.21,6.85,1.75,8.76,1.57s5.26-1,8.41-1.57,9-2.37,11.83-1.38,15.42,4,15.42,4l51.87,5a3.22,3.22,0,0,1,.76.17h0a3,3,0,0,1,.16,5.51l-19.21,8.47,1,11.43Z"/></g><path class="cls-25" d="M443,330.84s-6.72-2.83-10.47-2.9-14.47.15-17.67-.28-6.93-.69-7.83-1.19-6.22-2.42-6.85-1.46-.58,5.82,3.45,8.65A23.4,23.4,0,0,0,415,337.58c2.23,0,9.33,1.18,10.36,2.16"/><path class="cls-29" d="M410.61,360.6s-19,8.34-25.23,12-20.71,14.56-20.71,14.56c-5.94,4.2-15.77,5.59-22.76,3.23l-14.08-4.77c-8.22-2.79-7.87-16.6-4.59-17.8a265.33,265.33,0,0,0,29.08-14.31A319.27,319.27,0,0,1,383,338.21c8.38-4.15,30.23,1.21,35.05,6l.22,4.78C417.69,356.42,417.88,357.17,410.61,360.6Z"/><path class="cls-30" d="M410.61,354.17s-19,8.35-25.23,12-20.71,14.56-20.71,14.56c-5.94,4.2-15.77,5.6-22.76,3.23l-14.08-4.77c-8.22-2.78-9.13-9.54-1.93-14.39A249.62,249.62,0,0,1,352.32,347,320.57,320.57,0,0,1,383,331.79c8.38-4.16,20.1-3.63,24.92,1.11L416.2,341C420.3,345.07,417.88,350.74,410.61,354.17Z"/><ellipse class="cls-31" cx="344.06" cy="371.14" rx="13.35" ry="7.7"/><ellipse class="cls-29" cx="370.49" cy="366.27" rx="8.16" ry="4.71"/><ellipse class="cls-29" cx="385.63" cy="357.53" rx="8.16" ry="4.71"/><ellipse class="cls-31" cx="370.49" cy="364.13" rx="8.16" ry="4.71"/><ellipse class="cls-31" cx="385.63" cy="355.39" rx="8.16" ry="4.71"/><path class="cls-30" d="M348.38,366.19l-3.7,2.13a1.38,1.38,0,0,1-1.25,0l-3.7-2.13a1.38,1.38,0,0,0-1.25,0l-3,1.72a.39.39,0,0,0,0,.73l3.69,2.13a.39.39,0,0,1,0,.73l-3.69,2.13a.39.39,0,0,0,0,.73l3,1.72a1.38,1.38,0,0,0,1.25,0l3.7-2.13a1.38,1.38,0,0,1,1.25,0l3.7,2.13a1.38,1.38,0,0,0,1.25,0l3-1.72a.39.39,0,0,0,0-.73l-3.69-2.13a.39.39,0,0,1,0-.73l3.69-2.13a.39.39,0,0,0,0-.73l-3-1.72A1.38,1.38,0,0,0,348.38,366.19Z"/><path class="cls-31" d="M370.06,344.59l-7.49,3.76a2.29,2.29,0,0,1-2.06-.09h0c-.52-.35-.46-.88.15-1.19l7.49-3.76a2.29,2.29,0,0,1,2.06.09h0C370.74,343.75,370.67,344.28,370.06,344.59Z"/><path class="cls-31" d="M354.58,353l-6.51,4.33a2.29,2.29,0,0,1-2.06.08h0c-.61-.31-.68-.84-.15-1.19l6.51-4.32a2.26,2.26,0,0,1,2.06-.09h0C355,352.08,355.11,352.61,354.58,353Z"/><path class="cls-32" d="M391.59,345.17c.7.49.64,0,.57,1.6a2.31,2.31,0,0,1-1.35,2,7.72,7.72,0,0,1-6.87,0,2.23,2.23,0,0,1-1.26-2.6c0-.32-.15-.71.49-1.07C385,344,389.73,344.09,391.59,345.17Z"/><ellipse class="cls-33" cx="387.41" cy="345.6" rx="4.77" ry="2.75"/><path class="cls-32" d="M392.08,337.83c.7.5.64,0,.57,1.6a2.3,2.3,0,0,1-1.35,2,7.75,7.75,0,0,1-6.87,0,2.23,2.23,0,0,1-1.25-2.61c0-.32-.15-.7.48-1.07C385.53,336.71,390.22,336.76,392.08,337.83Z"/><ellipse class="cls-33" cx="387.9" cy="338.27" rx="4.77" ry="2.75"/><path class="cls-32" d="M404.34,344.93c.7.5.64,0,.56,1.6a2.29,2.29,0,0,1-1.34,2,7.75,7.75,0,0,1-6.87,0,2.23,2.23,0,0,1-1.26-2.61c0-.32-.15-.7.49-1.07C397.78,343.8,402.48,343.85,404.34,344.93Z"/><ellipse class="cls-33" cx="400.16" cy="345.37" rx="4.77" ry="2.75"/><path class="cls-32" d="M404.76,337.53c.7.5.64,0,.57,1.6a2.3,2.3,0,0,1-1.35,2,7.72,7.72,0,0,1-6.87,0,2.24,2.24,0,0,1-1.26-2.61c0-.31-.15-.7.49-1.07C398.2,336.41,402.9,336.46,404.76,337.53Z"/><ellipse class="cls-33" cx="400.58" cy="337.97" rx="4.77" ry="2.75"/><path class="cls-27" d="M478.47,366.85l-7.69,1.72L463,365.06s-2.25-2.24-4.67-1.27-4.41-.09-7.49.13c0,0-3-24.25-26.11-24.54-1.12,0-3.71-1.12-6.93-1.53-2.82-.37-6.11-.3-8.68-1.47-1.49-.68-7.62-2.85-8.64-6.73s0-4.85,0-4.85-1.48,3.37,7.41,5.2c1,.21,6.85,1.75,8.76,1.57s5.26-1,8.41-1.57,9-2.37,11.83-1.38,15.42,4,15.42,4l51.87,5a3.22,3.22,0,0,1,.76.17h0a3,3,0,0,1,.16,5.51l-19.21,8.47,1,11.43Z"/><path class="cls-34" d="M512.31,383.48c12.24,3.12,34.32-30.74,34.32-30.74.4-.6,1-1.6,1.42-2.21,0,0,4.56-7.27-3.09-8.64s-67.38-7.31-67.38-7.31a1.44,1.44,0,0,0-1.54,1.16l-5.7,32.68a1.56,1.56,0,0,0,1,1.7S509.2,382.69,512.31,383.48Z"/><path class="cls-27" d="M406.17,419.19l-2.78-7.37-7.23-4.62s-1.09-.84-3.62-3.21c-1.9-1.78-3.45-2.87-4.82-4.12,0,0-21.1,8.57-34-10.6-.63-.93-3-2.49-5.08-4.95-1.85-2.16-3-2.93-4.42-5.26-.86-1.39-4.23-8.66-9.22-6.86-3.75,1.36-3.94,2.84-3.24,4.24a34.36,34.36,0,0,0,3.05,6.05c.55.89,3.41,4.09,4.3,5.79s3.35,4.05,4.62,7,5.29,8.29,7.67,10.11,11.81,10.7,11.81,10.7l32.62,40.64a3.19,3.19,0,0,0,.56.54h0a3,3,0,0,0,4.69-2.89l-3.44-20.7,10.09-5.47Z"/><path class="cls-34" d="M438.62,438.38c9.33,8.53-6.88,45.56-6.88,45.56-.29.66-.78,1.74-1.08,2.39,0,0-3.58,7.8-8.92,2.16s-43.05-52.35-43.05-52.35a1.43,1.43,0,0,1,.13-1.92L403,411.54a1.57,1.57,0,0,1,2-.09S436.26,436.22,438.62,438.38Z"/><path class="cls-23" d="M335.12,380.55s7.24-2.21,5.44-4.1-2.82-3.33-4.39-3.34a3.9,3.9,0,0,0-3.53,1.94C332,376.23,333.84,380.4,335.12,380.55Z"/><path class="cls-35" d="M170.16,433.78l16,31.49s1.3,6.64-2.38,8.91c-.36.22-4.56,3.43-4.9,3.19-1.54-1.12,1.38-8.14-.44-8.69,1.56-1.34-5.35-14.7-8.24-19.83S170.16,433.78,170.16,433.78Z"/><path class="cls-36" d="M183.6,468.46c-.33,1.33-.26,1.9-.78,2.23-.36.22-3.45,3.58-3.78,3.34-1.55-1.12,1.26-4.8-.56-5.35,1.56-1.34-5.35-14.7-8.24-19.83-1.42-2.5-1.47-6.16-1.15-9.24C169.09,439.61,184.08,466.55,183.6,468.46Z"/><path class="cls-37" d="M171.13,468.9c-4,1.34-6.69,8-1.79,10.47s9.58.67,11.37-2.89.44-7.13-2.23-7.8S175.14,467.57,171.13,468.9Z"/><path class="cls-38" d="M171.13,468.9c-4,1.34-6.69,8-1.79,10.47s6.69-.42,8.47-4,3.34-6,.67-6.7S175.14,467.57,171.13,468.9Z"/><path class="cls-39" d="M157.16,428.05c-3.82-1.49-12.34-6.91-12.34-6.91s-50.78-3.57-61.15-.61c0,0-14,15.15-15.36,26.27-1.09,8.77,2,13.24,3.45,15.31,1.68,2.42,3.43,4.17,8.89,8.88a5.15,5.15,0,0,1,.81,1.51c-2.4,5.3.78,9.15,7.05,12.44,4,1.73,8.33,3.59,10.94,4.49,13.4,4.62,11.24-.68,18.22-9.06,2.47-3,0-5.92-8.89-9.38-2.45-.95-4.6-1.93-6.52-2.82,1.52-2.71-31.16-.87-28.69-16.17s9.19-17.77,11.65-19.43c12.7-8.55,28.38-6.87,48.62-1.44,1.9.51,7.91,6,5.55,8.76-8.89,10.37-3.37,15.54,11.48,20.65,9.19,3.17,12.88,1.79,16.54-2.09.53-.55,13.09,14,13.63,13.36s-10.86-16.64-10.21-17.44,1.36-1.71,2.12-2.63C175.42,448.78,166,431.5,157.16,428.05Z"/><path class="cls-40" d="M85.82,469.3s-14.3-8-17-13.34c-2.09-3-2.25-7.07-2.25-11.25s.32-11.72.32-11.72,1.45,10.44,4.18,13.33,15.75,11.41,19.44,12.37S85.82,469.3,85.82,469.3Z"/><path class="cls-41" d="M169.09,431c4.2,8.14,5.9,18.5.27,21.79-1.33.77-6.2,3.65-8.39,3.87-5,.5-6.64-9.1-9.85-15.32-3-5.8-9.74-12-6.83-14.91,1.16-1.17,5.82-3.35,7-4.23C156.54,418.28,164.89,422.81,169.09,431Z"/><path class="cls-42" d="M165.79,432.88c4.63,9,6.5,20.41.29,24-1.46.85-6.84,4-9.25,4.27-5.55.56-7.33-10-10.86-16.89-3.3-6.39-10.74-13.23-7.53-16.44,1.28-1.29,6.42-3.7,7.72-4.67C151.94,418.91,161.16,423.91,165.79,432.88Z"/><path class="cls-43" d="M158.39,436.89c4.55,8.81,6.39,20,.29,23.59s-15.21-3.58-19.75-12.39-4.27-17.44.19-20.73C144.8,423.16,153.85,428.07,158.39,436.89Z"/><path class="cls-44" d="M154.88,439.43c2.83,5.49,4,12.47.18,14.68s-9.46-2.22-12.29-7.71-2.65-10.84.12-12.89C146.43,430.9,152.06,434,154.88,439.43Z"/><path class="cls-45" d="M154.88,439.43c2.83,5.49,4,12.47.18,14.68-4.29-1-7.29-2.47-10.12-7.95s-3.09-10.52-2.05-12.65C146.43,430.9,152.06,434,154.88,439.43Z"/><path class="cls-40" d="M136.91,429.05l9.8-6.43s-25-23.69-66.43-5.06c-2.09,1.05-17.11,7.15-12,24.1,2,3,.4,1.69,1.37,2.57s1.6-8,15.5-14.7,22-6.39,30.2-5.94A63.61,63.61,0,0,1,136.91,429.05Z"/><path class="cls-46" d="M148.56,421.58l-11.33-6.1a58.58,58.58,0,0,0-22.65-5.55c-11.32-.42-20.4.56-33.34,6C77,418.05,68.15,423.35,67,430a18.53,18.53,0,0,0,3.06,15.83,46,46,0,0,0,9.15,7.55c2.9,1.69,9.48,5.14,9.48,5.14l.89-.8-8.84-5.06a42.61,42.61,0,0,1-9.4-7.39,17.33,17.33,0,0,1-2.57-14.94c1.13-3.78,3.54-8,13.1-12.86s26.42-6.18,32.69-5.78a68.17,68.17,0,0,1,22.09,5.54c7.15,3.7,10,5.38,10,5.38Z"/><path class="cls-41" d="M117.86,460.69c4.63,9,6.5,20.41.29,24S102.67,481.07,98,472.09s-4.34-17.75.19-21.1C104,446.72,113.23,451.71,117.86,460.69Z"/><path class="cls-47" d="M116.73,461c4.63,9,6.5,20.41.29,24-1.46.85-6.84,4-9.25,4.27-5.55.55-7.33-10-10.86-16.9-3.3-6.39-10.74-13.23-7.53-16.44,1.28-1.28,6.42-3.69,7.72-4.66C102.88,447,112.1,452,116.73,461Z"/><path class="cls-48" d="M110.54,464.91c4.55,8.82,6.39,20,.29,23.6s-15.21-3.58-19.76-12.4-4.26-17.43.2-20.73C96.94,451.19,106,456.09,110.54,464.91Z"/><path class="cls-41" d="M105.92,467.45c4.13,8,5.81,18.22.26,21.45s-13.82-3.25-18-11.27-3.87-15.85.18-18.84C93.56,455,101.79,459.44,105.92,467.45Z"/><path class="cls-49" d="M102.92,469.63c2.67,5.16,3.75,11.74.17,13.83s-8.91-2.1-11.58-7.27S89,466,91.62,464C95,461.58,100.26,464.46,102.92,469.63Z"/><g id="Server_Servers" data-name="Server Servers"><ellipse class="cls-50" cx="51.43" cy="103.15" rx="3.64" ry="2.15" transform="translate(-63.61 96.12) rotate(-60)"/><ellipse class="cls-51" cx="44.83" cy="106.89" rx="3.64" ry="2.15" transform="translate(-70.15 92.27) rotate(-60)"/><path class="cls-2" d="M98.48,251l97-56-97-56-97,56Z"/><path class="cls-52" d="M98.48,211l97-56-97-55.85L1.48,155Z"/><path class="cls-53" d="M98.48,205.39l92.21-53L98.48,99.14l-92,53.21Z"/><path class="cls-54" d="M98.48,244.56l97-55.86V155l-97,56Z"/><path class="cls-55" d="M98.48,244.56l-97-55.86L1.65,155l96.83,56Z"/><path class="cls-31" d="M109.06,226.54l49.57-28.75a9.43,9.43,0,0,0,1.66-1.43,9,9,0,0,0,1.26-1.79,9.34,9.34,0,0,0,.78-2,8.86,8.86,0,0,0,.27-2.18h0c0-3-1.66-4.29-4-3.14L109.06,216a10.08,10.08,0,0,0-1.63,1.5,10.41,10.41,0,0,0-1.24,1.84,9.61,9.61,0,0,0-.79,2.07,9.48,9.48,0,0,0-.31,2.19h0C105.09,226.38,106.91,227.7,109.06,226.54Z"/><path class="cls-52" d="M98.48,166.06l97-55.85-97-56-97,56Z"/><path class="cls-54" d="M98.48,199.77l97-56V110.21l-97,55.85Z"/><path class="cls-55" d="M98.48,199.77l-97-56,.17-33.55,96.83,55.85Z"/><path class="cls-31" d="M109.06,181.6l49.57-28.76a8.66,8.66,0,0,0,1.66-1.43,9,9,0,0,0,1.26-1.79,9.15,9.15,0,0,0,.78-2,8.84,8.84,0,0,0,.27-2.17h0c0-3-1.66-4.3-4-3L109.06,171a10.14,10.14,0,0,0-1.63,1.51,10.33,10.33,0,0,0-1.24,1.83,9.91,9.91,0,0,0-1.1,4.26h0C105.09,181.43,106.91,182.75,109.06,181.6Z"/><path class="cls-54" d="M91.7,189.69h0c.5.33,1,0,1-.82V172.34a3.45,3.45,0,0,0,0-.64,3.19,3.19,0,0,0-.19-.62,4,4,0,0,0-.32-.57,2.51,2.51,0,0,0-.44-.48h0c-.66-.33-1.15,0-1.15,1v16.53a2.57,2.57,0,0,0,.08.62,3,3,0,0,0,.23.59,2.73,2.73,0,0,0,.37.52A2.61,2.61,0,0,0,91.7,189.69Z"/><path class="cls-54" d="M86.91,187.55h0c.66.33,1.16,0,1.16-.83V170a2.72,2.72,0,0,0-.08-.63,3.32,3.32,0,0,0-.24-.59,2.61,2.61,0,0,0-.36-.51,2.41,2.41,0,0,0-.48-.42h0c-.66-.33-1.15,0-1.15.83v16.52a2.5,2.5,0,0,0,0,.67,2.85,2.85,0,0,0,.22.64,2.63,2.63,0,0,0,.38.56A3,3,0,0,0,86.91,187.55Z"/><path class="cls-54" d="M82.12,184.74h0c.5.33,1.16,0,1.16-.83V167.39a2.84,2.84,0,0,0-.1-.66,2.8,2.8,0,0,0-.23-.63,3.33,3.33,0,0,0-.36-.56,3.48,3.48,0,0,0-.47-.47h0c-.66-.33-1.16,0-1.16,1v16.53a3.2,3.2,0,0,0,.09.62,2.34,2.34,0,0,0,.23.59,2.68,2.68,0,0,0,.36.52A3.14,3.14,0,0,0,82.12,184.74Z"/><path class="cls-54" d="M91.7,234.64h0c.5.33,1-.16,1-1V217.12a3.09,3.09,0,0,0-.08-.6,2.75,2.75,0,0,0-.2-.57,2.11,2.11,0,0,0-.31-.52,2.2,2.2,0,0,0-.41-.45h0c-.66-.33-1.15,0-1.15.82v16.53a3.74,3.74,0,0,0,.09.66,3.61,3.61,0,0,0,.24.62,3.33,3.33,0,0,0,.36.56A2.92,2.92,0,0,0,91.7,234.64Z"/><path class="cls-54" d="M86.91,232.49h0c.66.33,1.16-.16,1.16-1V215a2.65,2.65,0,0,0-.08-.63,3.32,3.32,0,0,0-.24-.59,3,3,0,0,0-.36-.52,2.73,2.73,0,0,0-.48-.41h0c-.66-.33-1.15,0-1.15.82v16.53a3,3,0,0,0,.09.66,4.62,4.62,0,0,0,.23.62,3,3,0,0,0,.36.56A3.48,3.48,0,0,0,86.91,232.49Z"/><path class="cls-54" d="M82.12,229.68h0c.5.33,1.16-.16,1.16-1V212.17a3.24,3.24,0,0,0-.12-.62,3.61,3.61,0,0,0-.24-.57,3.15,3.15,0,0,0-.35-.52,3.73,3.73,0,0,0-.45-.44h0c-.66-.33-1.16,0-1.16.83v16.52a3.76,3.76,0,0,0,.1.66,3.56,3.56,0,0,0,.23.62,3,3,0,0,0,.36.56A3.48,3.48,0,0,0,82.12,229.68Z"/><ellipse class="cls-50" cx="182.81" cy="179.16" rx="3.64" ry="2.15" transform="translate(-63.76 247.9) rotate(-60)"/><ellipse class="cls-51" cx="176.21" cy="182.74" rx="3.64" ry="2.15" transform="translate(-70.15 243.97) rotate(-60)"/><ellipse class="cls-51" cx="182.75" cy="132.65" rx="3.64" ry="2.15" transform="translate(-23.5 224.59) rotate(-60)"/><ellipse class="cls-51" cx="176.15" cy="136.22" rx="3.64" ry="2.15" transform="translate(-29.9 220.66) rotate(-60)"/></g><g class="cls-56"><path class="cls-57" d="M4.21,1.65V108.32a6.07,6.07,0,0,0,2.73,4.73l89.11,51.44a6,6,0,0,0,5.46,0l87.34-50.57a6.06,6.06,0,0,0,2.73-4.73V1.65"/></g><polygon class="cls-58" points="107.38 83.66 113.14 80.34 118.89 83.78 124.28 86.86 113.14 94.28 107.38 90.42 107.38 83.66"/><path class="cls-58" d="M95.89,117v20.64l5.54,3.08V121.34l5.85-3.38V131.1l11.39,6.38L130.27,124l-6-3.49-11,6.24V121l28.84-16.64-.1,6.1-11.6,6.68-.15,6.92,5.64,3.49,11.6-13.44L142,110.42l5.49,3.65L148,94.48l5.85-3.38v13.14l5.4,3.08-.06-20.65L165,83.33l-11.39-6.67-4.94-2.73-.45-.36-6-3.25,5.72,3.08,5.4-10.06-5.4-3.09-5.75,3.33v6.73l-5.72,3.31v6.76L118.89,90.52V83.78l-5.75,3.32v6.74l-5.89,3.4v6.57l-5.85,3.37v6.68Zm40.39-29.8L142,83.92v6.22l-5.75,3.32Zm-23,13.28L119,97.2v6.2l-5.75,3.32Z"/><polygon class="cls-59" points="112.78 87.51 118.53 84.19 118.53 90.95 112.78 94.28 112.78 87.51"/><path class="cls-59" d="M101.28,120.13v20.63l5.54-3.2V124.42l5.86-3.38v13.14l6-3.46v6.76l11.6-6.69V124l-11.59,6.69v-6.66l28.83-16.65v6.65l-11.6,6.7v6.76l11.6-6.69v-6.75l5.83-3.37V97.57l5.86-3.39v13.14L165,104V83.33l-5.54,3.2V79.85l-5.85,3.38V76.66l-6,3.48V73.4l5.72-3.3V63.34l-5.76,3.32V73.4l-5.72,3.3v6.76L124.28,93.6V86.86l-5.75,3.32v6.74l-5.89,3.4v6.57l-5.84,3.38v6.67Zm40.4-29.81L147.43,87v6.76l-5.75,3.33Zm-23,13.29,5.75-3.32v6.76l-5.75,3.32Z"/><polygon class="cls-60" points="147.47 108.56 147.47 114.01 141.81 110.67 147.51 107.4 147.47 108.56"/><polygon class="cls-60" points="135.96 120.78 135.96 127.56 130.27 124.02 130.41 117.34 135.96 120.78"/><polygon class="cls-60" points="112.68 121.04 112.68 134.17 107.28 131.1 107.28 124.22 112.68 121.04"/><polygon class="cls-60" points="106.71 110.27 106.71 116.91 101.31 113.83 101.31 107.18 106.71 110.27"/><polygon class="cls-60" points="112.63 100.27 112.63 106.91 107.23 103.83 107.23 97.18 112.63 100.27"/><polygon class="cls-60" points="112.78 87.51 112.79 94.22 107.39 90.42 107.38 83.66 112.78 87.51"/><polygon class="cls-60" points="141.76 76.7 141.77 83.41 136.38 80.38 136.37 73.62 141.76 76.7"/><polygon class="cls-60" points="159.19 94.18 159.19 107.28 153.8 104.26 153.79 97.34 159.19 94.18"/><polygon class="cls-60" points="147.52 66.7 147.53 73.41 142.13 70.38 142.12 63.62 147.52 66.7"/><polygon class="cls-60" points="101.28 120.13 101.24 140.66 95.89 137.68 95.85 117.04 101.28 120.13"/><polygon class="cls-60" points="118.67 130.72 118.67 137.48 112.73 134.16 118.67 130.72"/><polygon class="cls-60" points="124.42 100.28 124.37 107.05 118.67 103.61 124.42 100.28"/><polygon class="cls-60" points="118.53 91.01 118.53 96.92 113.22 94.03 118.53 91.01"/><polygon class="cls-60" points="147.44 87 147.38 93.76 141.68 90.32 147.44 87"/><polygon class="cls-61" points="59.61 86.43 59.59 93.86 66.4 90.07 59.61 86.43"/><polygon class="cls-61" points="41.51 75.71 41.47 83.48 48.28 79.69 41.51 75.71"/><polygon class="cls-61" points="35.8 80.16 35.77 86.87 41.77 83.51 35.8 80.16"/><polygon class="cls-61" points="47.31 86.74 47.27 93.59 53.28 90.23 47.31 86.74"/><polygon class="cls-61" points="47.29 71.85 47.27 79.29 54.57 75.98 47.29 71.85"/><polygon class="cls-61" points="65.2 82.88 65.18 90.91 72.37 86.79 65.2 82.88"/><polygon class="cls-62" points="41.56 74.74 42.58 68.83 35.77 72.62 35.86 73.4 30.04 76.85 35.97 80.44 41.52 76.72 41.53 75.94 47.24 79.3 47.24 72.54 41.49 69.22 41.56 74.74"/><polygon class="cls-62" points="77.06 110.78 82.81 106.6 82.81 99.84 77.06 96.52 77.06 110.78"/><polygon class="cls-62" points="77.47 90.09 72.37 85.93 71.19 86.52 71.23 100.7 77.07 104.05 77.47 90.09"/><polygon class="cls-62" points="52.98 75.85 51.95 76.54 47.24 79.3 47.26 80.23 41.47 83.48 51.02 89.05 52.99 82.62 65.33 89.74 65.33 82.98 52.98 75.85"/><polygon class="cls-62" points="65.52 104.09 71.23 99.92 71.22 86.55 65.52 89.77 65.52 104.09"/><path class="cls-62" d="M77.34,69.93V63.32l-6.12-3.56V53l-6-3.49V42.86l-12-6.94-6,3.15h0l-6.25,3.15h0l-5.54,3.11-6,3.57L35.05,59l12.24,7.06,0,6.14L53,75.53l0-6.14,12.32,7.12,0,6.62L71,86.41l6.5,3.68,5.72-3.4V73.31ZM53,62.67l-5.76-3.33V52.58L53,55.9ZM71.08,73.1l-5.75-3.32,0-6.33,6.25,3.27Z"/><polygon class="cls-63" points="35.77 80.16 30.04 76.85 30.04 83.61 35.79 86.93 35.79 80.17 41.52 83.48 41.52 75.94 35.77 72.62 35.77 80.16"/><polygon class="cls-63" points="71.34 107.46 77.09 110.78 77.09 104.02 71.34 100.7 71.34 107.46"/><polygon class="cls-63" points="71.35 93.14 65.52 89.77 65.52 97.33 71.35 100.7 71.35 93.14"/><polygon class="cls-63" points="47.27 79.3 47.27 86.79 41.52 83.48 41.52 90.24 47.28 93.56 47.28 86.8 59.61 93.92 59.61 86.43 47.27 79.3"/><polygon class="cls-63" points="59.61 100.68 65.52 104.09 65.52 97.33 59.61 93.92 59.61 100.68"/><path class="cls-63" d="M71.63,73.34V66.72l-6.12-3.56V56.4l-6.05-3.49V46.27l-12-7V46l-6-3.49v6.77l-6.24-3.61v6.64L29.3,48.9V62.28l12.24,7.06v6.6l5.75,3.32V72.67l12.32,7.11v6.59l5.92,3.42V83.2l11.94,6.89V76.71ZM47.29,66.07l-5.75-3.32V56l5.75,3.32ZM65.36,76.51l-5.75-3.33V66.42l5.75,3.32Z"/><polygon class="cls-61" points="71.37 93.11 71.37 100.8 77.43 96.74 77.47 90.09 71.37 93.11"/><polygon class="cls-61" points="77.17 103.99 77.17 110.75 82.81 106.6 82.91 99.86 77.17 103.99"/><polygon class="cls-61" points="77.5 76.73 77.5 90.1 83.19 86.69 83.23 73.35 77.5 76.73"/><polygon class="cls-61" points="71.69 66.68 71.69 73.27 77.38 69.86 77.43 63.29 71.69 66.68"/><polygon class="cls-61" points="65.56 56.46 65.56 63.05 71.25 59.64 71.3 53.07 65.56 56.46"/><polygon class="cls-61" points="59.48 46.24 59.48 52.83 65.17 49.42 65.22 42.86 59.48 46.24"/><polygon class="cls-62" points="59.59 93.88 65.52 97.33 65.52 90.57 59.59 93.88"/><polygon class="cls-61" points="65.52 97.33 65.56 104.08 71.34 100.7 65.52 97.33"/><polygon class="cls-61" points="59.5 66.41 59.54 73.16 65.33 69.78 59.5 66.41"/><polygon class="cls-61" points="41.59 56.08 41.63 62.84 47.25 59.34 41.59 56.08"/><path class="cls-2" d="M36.82,257.86l11.5-6.64-11.5-6.64-11.5,6.64Z"/><polygon class="cls-64" points="36.82 245.24 46.82 251.01 36.82 256.78 26.83 251.01 36.82 245.24"/><polygon class="cls-65" points="36.82 233.7 46.82 239.47 36.82 245.24 26.83 239.47 36.82 233.7"/><polygon class="cls-66" points="26.83 239.47 26.83 251.01 36.82 256.78 36.82 245.24 26.83 239.47"/><polygon class="cls-34" points="46.82 239.47 46.82 251.01 36.82 256.78 36.82 245.24 46.82 239.47"/><path class="cls-2" d="M231.5,133.47l11.5-6.64-11.5-6.64L220,126.83Z"/><polygon class="cls-67" points="231.47 120.16 241.47 125.93 231.47 131.7 221.48 125.93 231.47 120.16"/><polygon class="cls-59" points="231.47 108.62 241.47 114.39 231.47 120.16 221.48 114.39 231.47 108.62"/><polygon class="cls-58" points="221.48 114.39 221.48 125.93 231.47 131.7 231.47 120.16 221.48 114.39"/><polygon class="cls-60" points="241.47 114.39 241.47 125.93 231.47 131.7 231.47 120.16 241.47 114.39"/><path class="cls-2" d="M232.54,66.61,244,60l-11.5-6.64L221,60Z"/><polygon class="cls-68" points="232.76 53.32 242.75 59.09 232.76 64.86 222.76 59.09 232.76 53.32"/><polygon class="cls-62" points="232.76 41.78 242.75 47.55 232.76 53.32 222.76 47.55 232.76 41.78"/><polygon class="cls-63" points="222.76 47.55 222.76 59.09 232.76 64.86 232.76 53.32 222.76 47.55"/><polygon class="cls-61" points="242.75 47.55 242.75 59.09 232.76 64.86 232.76 53.32 242.75 47.55"/><path class="cls-69" d="M181.62,416.94s38.57-97.67,200-119.09c4.06.68,3.1,17.42,3.1,17.42S246.09,322.64,205.4,421A150.27,150.27,0,0,1,181.62,416.94Z"/><path class="cls-31" d="M227.33,394.06v-5c29.52-24.91,29.6-49.64,29.6-49.64l.75-20.48,18.63-7.33v24.28s-.42,7.12,14.24,2.1,35.24-5.41,60.76-8c2.51.42,2,10.95,2,10.95s-77.87-2.93-103,57.77C241.56,397.83,227.33,394.06,227.33,394.06Z"/><path class="cls-70" d="M227.33,389s7.95-18.42,22.19-31c9.63-10.46,10.88-26.37,10.88-26.37V317.86l15.91-11.3v24.28s-.42,7.12,14.24,2.09,32.67-10.78,58.19-13.39c2.51.42,4.61,16.32,4.61,16.32s-80.47-3.24-105.59,57.47C239,392.49,227.33,389,227.33,389Z"/><path class="cls-30" d="M156.58,252.34s74.52-80.43,209.33-128.16h11.72V257.32S263.75,307.56,167.46,389.61l-10.88-4.5Z"/><path class="cls-31" d="M165.79,251.45s77-79.54,211.84-127.27c0,0,.61,132.85,0,133.14-24.06,11.21-127.39,61-211,132.29Z"/><path class="cls-71" d="M170.94,255.64s67.58-72.4,200.3-122.85c0,0,.84,117.84.23,118.12-24.06,11.21-116.11,55.31-199.72,126.56Z"/><path class="cls-72" d="M205.46,306.33,198,301.07A198.92,198.92,0,0,1,229,263l3.53,10.21A173.43,173.43,0,0,0,205.46,306.33Z"/><path class="cls-73" d="M234.78,270.65,231.5,260.2a198.9,198.9,0,0,1,34.66-26l.1,12.85A180.84,180.84,0,0,0,234.78,270.65Z"/><path class="cls-74" d="M300.08,233c-9.86,2.17-20.45,6.42-31.45,12.63l.12-13c12.09-6.83,23.74-11.5,34.64-13.89Z"/><path class="cls-75" d="M329.33,234.44c-7-3.32-16.31-4-27-2l3.57-14.29c12.15-2.3,22.87-1.47,31,2.39Z"/><path class="cls-76" d="M262.38,274.07a40.11,40.11,0,0,0-2.78,3.81c-3.71,6.42-3.72,13.36,0,15.51s9.7-1.31,13.41-7.73a39.26,39.26,0,0,0,1.92-4.31l28-62.91Zm5.67,8.85c-1,1.72-2.62,2.66-3.61,2.08s-1-2.45,0-4.18,2.62-2.66,3.62-2.08S269.05,281.19,268.05,282.92Z"/><polygon class="cls-77" points="204.8 307.32 202.97 310.3 195.44 305.14 197.26 302.17 204.8 307.32"/><polygon class="cls-78" points="330.25 234.89 332.07 235.76 339.61 221.91 337.79 221.03 330.25 234.89"/><path class="cls-79" d="M249.62,212.47l36.06-20.82c1.52-.87,2.76.07,2.76,2.09v2.69a6.62,6.62,0,0,1-2.76,5.27l-36.06,20.82c-1.52.88-2.76-.06-2.76-2.09v-2.68A6.64,6.64,0,0,1,249.62,212.47Z"/></svg>